<svg xmlns="http://www.w3.org/2000/svg" width="36" height="36" viewBox="0 0 36 36"><defs><filter id="a" width="60.2" height="60.2" x="-12.1" y="-12.1" filterUnits="userSpaceOnUse"><feOffset in="SourceGraphic" result="FeOffset1188Out"/><feGaussianBlur in="FeOffset1188Out" result="FeGaussianBlur1189Out" stdDeviation="3.44 3.44"/></filter><mask id="b" width="2.05" height="2.05" x="-1.02" y="-1.02"><path fill="#fff" d="M6.5 6.5h23v23h-23z"/><path d="M24.505 29h-12.76a4.183 4.183 0 01-3.011-1.267 4.316 4.316 0 01-1.233-3.04c0-1.246.719-3.025 4.144-4.423 2.38-.97 4.96-1.314 6.448-1.314 1.485 0 4.066.344 6.455 1.314 2.714 1.103 4.167 2.628 4.201 4.41v.013a4.31 4.31 0 01-1.248 3.056A4.192 4.192 0 0124.505 29zm-6.412-8.654c-1.473 0-3.88.376-5.936 1.215-1.227.5-3.286 1.572-3.286 3.132 0 .779.297 1.51.835 2.06.54.551 1.265.856 2.039.856h12.76c.767 0 1.488-.3 2.03-.847a2.915 2.915 0 00.844-2.061c-.016-.675-.474-1.974-3.341-3.14-2.066-.839-4.474-1.215-5.945-1.215zm.003-2.554a5.11 5.11 0 01-.742-.055c-2.118-.307-3.806-2.018-4.107-4.16a5.047 5.047 0 011.089-4.053 4.921 4.921 0 013.786-1.773c.246 0 .496.017.742.054h.01a4.89 4.89 0 012.705 1.412 5.008 5.008 0 011.39 2.744 5.115 5.115 0 01-1.123 4.085 4.9 4.9 0 01-3.75 1.746zm.026-8.65c-1.062 0-2.06.466-2.74 1.281-.68.815-.958 1.857-.78 2.933l.002.018c.103.742.454 1.45.99 1.99a3.476 3.476 0 002.501 1.037 3.54 3.54 0 002.71-1.26c.69-.818.978-1.87.81-2.963-.24-1.517-1.454-2.75-2.952-2.997a3.899 3.899 0 00-.541-.04z"/></mask></defs><g filter="url(#a)"><path fill="none" stroke="#2592ee" stroke-opacity=".9" d="M24.505 29h-12.76a4.183 4.183 0 01-3.011-1.267 4.316 4.316 0 01-1.233-3.04c0-1.246.719-3.025 4.144-4.423 2.38-.97 4.96-1.314 6.448-1.314 1.485 0 4.066.344 6.455 1.314 2.714 1.103 4.167 2.628 4.201 4.41v.013a4.31 4.31 0 01-1.248 3.056A4.192 4.192 0 0124.505 29zm-6.412-8.654c-1.473 0-3.88.376-5.936 1.215-1.227.5-3.286 1.572-3.286 3.132 0 .779.297 1.51.835 2.06.54.551 1.265.856 2.039.856h12.76c.767 0 1.488-.3 2.03-.847a2.915 2.915 0 00.844-2.061c-.016-.675-.474-1.974-3.341-3.14-2.066-.839-4.474-1.215-5.945-1.215zm.003-2.554s0 0 0 0a5.11 5.11 0 01-.742-.055c-2.118-.307-3.806-2.018-4.107-4.16a5.047 5.047 0 011.089-4.053 4.921 4.921 0 013.786-1.773c.246 0 .496.017.742.054h.01a4.89 4.89 0 012.705 1.412 5.008 5.008 0 011.39 2.744 5.115 5.115 0 01-1.123 4.085 4.9 4.9 0 01-3.75 1.746zm.026-8.65c-1.062 0-2.06.466-2.74 1.281-.68.815-.958 1.857-.78 2.933l.002.018c.103.742.454 1.45.99 1.99a3.476 3.476 0 002.501 1.037h0a3.54 3.54 0 002.71-1.26c.69-.818.978-1.87.81-2.963-.24-1.517-1.454-2.75-2.952-2.997a3.899 3.899 0 00-.541-.04z" mask="url(&quot;#b&quot;)"/><path fill="#2592ee" fill-opacity=".9" d="M24.505 29h-12.76a4.183 4.183 0 01-3.011-1.267 4.316 4.316 0 01-1.233-3.04c0-1.246.719-3.025 4.144-4.423 2.38-.97 4.96-1.314 6.448-1.314 1.485 0 4.066.344 6.455 1.314 2.714 1.103 4.167 2.628 4.201 4.41v.013a4.31 4.31 0 01-1.248 3.056A4.192 4.192 0 0124.505 29zm-6.412-8.654c-1.473 0-3.88.376-5.936 1.215-1.227.5-3.286 1.572-3.286 3.132 0 .779.297 1.51.835 2.06.54.551 1.265.856 2.039.856h12.76c.767 0 1.488-.3 2.03-.847a2.915 2.915 0 00.844-2.061c-.016-.675-.474-1.974-3.341-3.14-2.066-.839-4.474-1.215-5.945-1.215zm.003-2.554a5.11 5.11 0 01-.742-.055c-2.118-.307-3.806-2.018-4.107-4.16a5.047 5.047 0 011.089-4.053 4.921 4.921 0 013.786-1.773c.246 0 .496.017.742.054h.01a4.89 4.89 0 012.705 1.412 5.008 5.008 0 011.39 2.744 5.115 5.115 0 01-1.123 4.085 4.9 4.9 0 01-3.75 1.746zm.026-8.65c-1.062 0-2.06.466-2.74 1.281-.68.815-.958 1.857-.78 2.933l.002.018c.103.742.454 1.45.99 1.99a3.476 3.476 0 002.501 1.037 3.54 3.54 0 002.71-1.26c.69-.818.978-1.87.81-2.963-.24-1.517-1.454-2.75-2.952-2.997a3.899 3.899 0 00-.541-.04z"/></g><g filter="url(#a)"><path fill="none" stroke="#2592ee" stroke-opacity=".9" d="M24.505 29h-12.76a4.183 4.183 0 01-3.011-1.267 4.316 4.316 0 01-1.233-3.04c0-1.246.719-3.025 4.144-4.423 2.38-.97 4.96-1.314 6.448-1.314 1.485 0 4.066.344 6.455 1.314 2.714 1.103 4.167 2.628 4.201 4.41v.013a4.31 4.31 0 01-1.248 3.056A4.192 4.192 0 0124.505 29zm-6.412-8.654c-1.473 0-3.88.376-5.936 1.215-1.227.5-3.286 1.572-3.286 3.132 0 .779.297 1.51.835 2.06.54.551 1.265.856 2.039.856h12.76c.767 0 1.488-.3 2.03-.847a2.915 2.915 0 00.844-2.061c-.016-.675-.474-1.974-3.341-3.14-2.066-.839-4.474-1.215-5.945-1.215zm.003-2.554s0 0 0 0a5.11 5.11 0 01-.742-.055c-2.118-.307-3.806-2.018-4.107-4.16a5.047 5.047 0 011.089-4.053 4.921 4.921 0 013.786-1.773c.246 0 .496.017.742.054h.01a4.89 4.89 0 012.705 1.412 5.008 5.008 0 011.39 2.744 5.115 5.115 0 01-1.123 4.085 4.9 4.9 0 01-3.75 1.746zm.026-8.65c-1.062 0-2.06.466-2.74 1.281-.68.815-.958 1.857-.78 2.933l.002.018c.103.742.454 1.45.99 1.99a3.476 3.476 0 002.501 1.037h0a3.54 3.54 0 002.71-1.26c.69-.818.978-1.87.81-2.963-.24-1.517-1.454-2.75-2.952-2.997a3.899 3.899 0 00-.541-.04z" mask="url(&quot;#b&quot;)"/><path fill="#2592ee" fill-opacity=".9" d="M24.505 29h-12.76a4.183 4.183 0 01-3.011-1.267 4.316 4.316 0 01-1.233-3.04c0-1.246.719-3.025 4.144-4.423 2.38-.97 4.96-1.314 6.448-1.314 1.485 0 4.066.344 6.455 1.314 2.714 1.103 4.167 2.628 4.201 4.41v.013a4.31 4.31 0 01-1.248 3.056A4.192 4.192 0 0124.505 29zm-6.412-8.654c-1.473 0-3.88.376-5.936 1.215-1.227.5-3.286 1.572-3.286 3.132 0 .779.297 1.51.835 2.06.54.551 1.265.856 2.039.856h12.76c.767 0 1.488-.3 2.03-.847a2.915 2.915 0 00.844-2.061c-.016-.675-.474-1.974-3.341-3.14-2.066-.839-4.474-1.215-5.945-1.215zm.003-2.554a5.11 5.11 0 01-.742-.055c-2.118-.307-3.806-2.018-4.107-4.16a5.047 5.047 0 011.089-4.053 4.921 4.921 0 013.786-1.773c.246 0 .496.017.742.054h.01a4.89 4.89 0 012.705 1.412 5.008 5.008 0 011.39 2.744 5.115 5.115 0 01-1.123 4.085 4.9 4.9 0 01-3.75 1.746zm.026-8.65c-1.062 0-2.06.466-2.74 1.281-.68.815-.958 1.857-.78 2.933l.002.018c.103.742.454 1.45.99 1.99a3.476 3.476 0 002.501 1.037 3.54 3.54 0 002.71-1.26c.69-.818.978-1.87.81-2.963-.24-1.517-1.454-2.75-2.952-2.997a3.899 3.899 0 00-.541-.04z"/></g><path fill="#d5f6ff" d="M24.505 29h-12.76a4.183 4.183 0 01-3.011-1.267 4.316 4.316 0 01-1.233-3.04c0-1.246.719-3.025 4.144-4.423 2.38-.97 4.96-1.314 6.448-1.314 1.485 0 4.066.344 6.455 1.314 2.714 1.103 4.167 2.628 4.201 4.41v.013a4.31 4.31 0 01-1.248 3.056A4.192 4.192 0 0124.505 29zm-6.412-8.654c-1.473 0-3.88.376-5.936 1.215-1.227.5-3.286 1.572-3.286 3.132 0 .779.297 1.51.835 2.06.54.551 1.265.856 2.039.856h12.76c.767 0 1.488-.3 2.03-.847a2.915 2.915 0 00.844-2.061c-.016-.675-.474-1.974-3.341-3.14-2.066-.839-4.474-1.215-5.945-1.215zm.003-2.554a5.11 5.11 0 01-.742-.055c-2.118-.307-3.806-2.018-4.107-4.16a5.047 5.047 0 011.089-4.053 4.921 4.921 0 013.786-1.773c.246 0 .496.017.742.054h.01a4.89 4.89 0 012.705 1.412 5.008 5.008 0 011.39 2.744 5.115 5.115 0 01-1.123 4.085 4.9 4.9 0 01-3.75 1.746zm.026-8.65c-1.062 0-2.06.466-2.74 1.281-.68.815-.958 1.857-.78 2.933l.002.018c.103.742.454 1.45.99 1.99a3.476 3.476 0 002.501 1.037 3.54 3.54 0 002.71-1.26c.69-.818.978-1.87.81-2.963-.24-1.517-1.454-2.75-2.952-2.997a3.899 3.899 0 00-.541-.04z"/></svg>